<svg width="21" height="18" viewBox="0 0 21 18" fill="none" xmlns="http://www.w3.org/2000/svg">
<path d="M19.1601 1.99998C18.1001 0.93719 16.6949 0.288522 15.1984 0.171152C13.702 0.0537822 12.2129 0.475448 11.0001 1.35998C9.72775 0.41362 8.14408 -0.0155064 6.56801 0.15902C4.99194 0.333546 3.54053 1.09876 2.50607 2.30057C1.4716 3.50237 0.930915 5.0515 0.992894 6.636C1.05487 8.22049 1.71491 9.72265 2.84009 10.84L9.05009 17.06C9.57011 17.5718 10.2705 17.8586 11.0001 17.8586C11.7297 17.8586 12.4301 17.5718 12.9501 17.06L19.1601 10.84C20.3277 9.66525 20.983 8.07626 20.983 6.41998C20.983 4.76371 20.3277 3.17472 19.1601 1.99998ZM17.7501 9.45998L11.5401 15.67C11.4694 15.7413 11.3853 15.798 11.2926 15.8366C11.1999 15.8753 11.1005 15.8952 11.0001 15.8952C10.8997 15.8952 10.8002 15.8753 10.7076 15.8366C10.6149 15.798 10.5308 15.7413 10.4601 15.67L4.25009 9.42998C3.46585 8.62833 3.0267 7.55145 3.0267 6.42998C3.0267 5.30852 3.46585 4.23164 4.25009 3.42998C5.04925 2.64097 6.12707 2.19855 7.25009 2.19855C8.37312 2.19855 9.45094 2.64097 10.2501 3.42998C10.3431 3.52371 10.4537 3.59811 10.5755 3.64887C10.6974 3.69964 10.8281 3.72578 10.9601 3.72578C11.0921 3.72578 11.2228 3.69964 11.3447 3.64887C11.4665 3.59811 11.5771 3.52371 11.6701 3.42998C12.4692 2.64097 13.5471 2.19855 14.6701 2.19855C15.7931 2.19855 16.8709 2.64097 17.6701 3.42998C18.4651 4.22113 18.9187 5.29217 18.9336 6.41367C18.9486 7.53516 18.5237 8.61792 17.7501 9.42998V9.45998Z" fill="white"/>
</svg>
